 <svg version="1.0" xmlns="http://www.w3.org/2000/svg"  width="750.000000pt" height="747.000000pt" viewBox="0 0 750.000000 747.000000"  preserveAspectRatio="xMidYMid meet">  <g transform="translate(0.000000,747.000000) scale(0.100000,-0.100000)" fill="#000000" stroke="none"> <path d="M4680 6900 c-30 -4 -71 -15 -90 -25 -19 -10 -249 -231 -510 -492 l-476 -473 -194 195 c-107 107 -202 195 -211 195 -15 0 -343 -316 -394 -380 -85 -105 -102 -126 -115 -140 -71 -77 -196 -266 -258 -390 -15 -30 -30 -56 -34 -58 -5 -2 -8 -8 -8 -13 0 -9 -10 -32 -54 -134 -36 -81 -46 -107 -46 -123 0 -10 -4 -22 -9 -27 -7 -9 -19 -46 -65 -204 -9 -29 -16 -62 -16 -72 0 -11 -4 -27 -10 -37 -5 -9 -14 -44 -20 -77 -6 -33 -18 -95 -26 -137 -8 -43 -21 -113 -29 -155 -34 -189 -52 -287 -84 -438 -6 -27 -15 -61 -20 -75 -5 -14 -19 -59 -31 -100 -13 -41 -26 -79 -31 -85 -5 -5 -9 -15 -9 -23 0 -19 -95 -228 -111 -242 -3 -3 -16 -23 -29 -45 -13 -22 -26 -42 -30 -45 -3 -3 -19 -25 -35 -50 -17 -24 -108 -123 -202 -220 -95 -96 -173 -183 -173 -192 0 -9 83 -101 185 -203 102 -103 185 -190 185 -194 0 -3 -122 -127 -270 -275 -263 -262 -270 -270 -253 -289 87 -95 705 -707 715 -707 7 0 134 120 281 268 l268 267 183 -188 c101 -103 189 -187 197 -187 7 0 76 62 154 138 159 157 263 251 285 261 8 3 42 24 75 46 75 49 243 135 265 135 9 0 20 4 26 9 5 4 43 18 84 30 41 13 89 27 106 32 16 5 50 13 75 19 24 5 73 17 109 26 36 8 92 20 125 25 33 5 90 16 126 24 37 8 82 15 101 15 19 0 48 4 64 10 16 5 61 14 99 19 39 6 97 17 130 25 33 8 87 22 120 30 98 24 149 38 170 46 11 5 54 18 95 30 84 25 87 26 185 70 168 76 377 192 415 230 3 3 23 17 45 31 35 23 120 91 225 181 81 69 390 382 390 395 0 7 -105 119 -232 248 -128 130 -234 241 -236 248 -1 6 209 224 467 482 542 543 521 515 521 682 0 93 -2 103 -35 168 -66 128 -186 218 -313 234 -84 10 -174 -1 -232 -29 -32 -16 -176 -154 -513 -491 -258 -258 -472 -469 -476 -469 -4 0 -41 35 -81 78 -40 42 -286 291 -546 554 l-473 476 257 255 c141 141 347 345 457 454 216 215 224 223 253 280 69 133 54 279 -42 408 -35 48 -96 104 -113 105 -7 0 -13 4 -13 10 0 5 -12 13 -27 16 -16 4 -37 13 -48 19 -26 16 -144 24 -215 15z"/> </g> </svg> 